<svg width="24" height="24" viewBox="0 0 24 24" fill="none" xmlns="http://www.w3.org/2000/svg">
<path d="M15.943 9.33334H8.0571C7.81846 9.33334 7.625 9.51431 7.625 9.7376V16.0532C7.625 17.1267 8.55841 18 9.70559 18H14.2943C15.4416 18 16.375 17.1267 16.375 16.0532V9.7376C16.375 9.51437 16.1817 9.33334 15.943 9.33334ZM10.9613 15.5651C10.9613 15.8394 10.7237 16.0617 10.4305 16.0617C10.1374 16.0617 9.89961 15.8394 9.89961 15.5651V11.7683C9.89961 11.4939 10.1373 11.2716 10.4305 11.2716C10.7236 11.2716 10.9613 11.494 10.9613 11.7683V15.5651ZM14.1004 15.5651C14.1004 15.8394 13.8627 16.0617 13.5695 16.0617C13.2765 16.0617 13.0387 15.8394 13.0387 15.5651V11.7683C13.0387 11.4939 13.2764 11.2716 13.5695 11.2716C13.8627 11.2716 14.1004 11.494 14.1004 11.7683V15.5651Z" fill="#647A8C"/>
<path d="M15.6433 6.58036H13.6897V6.43945C13.6897 6.19713 13.4527 6 13.1614 6H10.8387C10.5474 6 10.3103 6.19713 10.3103 6.43945V6.58036H8.35671C7.60864 6.58036 7 7.08655 7 7.70875V8.43233C7 8.56173 7.12613 8.66667 7.28178 8.66667H16.7183C16.8739 8.66667 17 8.56173 17 8.43233V7.70875C17 7.08656 16.3914 6.58036 15.6433 6.58036Z" fill="#647A8C"/>
</svg>
